M48
; DRILL file {KiCad (5.99.0-9982-gb37b7d53b4)} date Fri Apr 16 19:50:37 2021
; FORMAT={-:-/ absolute / inch / decimal}
; #@! TF.CreationDate,2021-04-16T19:50:37+02:00
; #@! TF.GenerationSoftware,Kicad,Pcbnew,(5.99.0-9982-gb37b7d53b4)
; #@! TF.FileFunction,Plated,1,2,PTH
FMAT,2
INCH
; #@! TA.AperFunction,ViaDrill
T1C0.0118
; #@! TA.AperFunction,ViaDrill
T2C0.0157
; #@! TA.AperFunction,ComponentDrill,Plated,PTH
T3C0.0236
; #@! TA.AperFunction,ComponentDrill,Plated,PTH
T4C0.0354
; #@! TA.AperFunction,ComponentDrill,Plated,PTH
T5C0.0394
; #@! TA.AperFunction,ComponentDrill,Plated,PTH
T6C0.0433
; #@! TA.AperFunction,ComponentDrill,Plated,PTH
T7C0.0591
%
G90
G05
T1
; via hole
X4.9193Y-3.6457
X4.9193Y-4.0551
X4.9866Y-3.9236
X4.9891Y-3.8219
X4.9891Y-3.8533
X5.0205Y-3.865
X5.1024Y-3.6138
X5.1331Y-3.872
X5.1358Y-4.5945
X5.2307Y-3.9929
X5.2618Y-4.8622
X5.2945Y-4.5799
X5.3237Y-4.6509
X5.3307Y-3.9945
X5.4295Y-4.1587
X5.4315Y-4.5228
X5.4449Y-4.628
X5.4538Y-4.1361
X5.4758Y-4.114
X5.4783Y-4.7126
X5.5165Y-3.9043
X5.5187Y-4.2917
X5.5323Y-4.539
X5.5374Y-4.7047
X5.539Y-4.0948
X5.5783Y-4.8984
X5.5835Y-4.5291
X5.5874Y-4.7768
X5.5937Y-4.8299
X5.6059Y-3.9614
X5.6224Y-4.3811
X5.6295Y-4.5803
X5.6311Y-4.6827
X5.6457Y-4.8307
X5.6488Y-4.0948
X5.6752Y-4.7047
X5.6756Y-4.5524
X5.678Y-4.6213
X5.6909Y-4.8957
X5.6926Y-4.5889
X5.6931Y-4.8288
X5.7008Y-4.4736
X5.7087Y-4.524
X5.7142Y-4.0902
X5.7256Y-4.8976
X5.7539Y-3.8484
X5.7571Y-3.9461
X5.7658Y-4.8928
X5.8031Y-3.5933
X5.8031Y-4.0236
X5.8031Y-4.1142
X5.8134Y-4.5898
X5.8366Y-4.0209
X5.8791Y-3.6268
X5.8791Y-3.6583
X5.9421Y-4.8047
X5.9583Y-3.6626
X5.9807Y-4.5469
X5.9843Y-3.5728
X5.9902Y-4.065
X5.9902Y-4.7028
X6.0193Y-4.8098
X6.0317Y-4.236
X6.037Y-3.5874
X6.037Y-3.6189
X6.0387Y-4.66
X6.0437Y-4.7945
X6.0492Y-3.8091
X6.0642Y-3.6646
X6.0935Y-4.8172
X6.1222Y-4.8172
X6.1264Y-4.5921
X6.1303Y-3.6591
X6.1468Y-4.6124
X6.1618Y-4.7516
X6.1618Y-4.822
X6.1752Y-3.5551
X6.1803Y-3.6953
X6.2068Y-4.769
X6.2271Y-4.7893
X6.2559Y-3.6634
X6.539Y-3.8311
X6.6047Y-4.7138
T2
X5.2776Y-3.7953
X5.3707Y-4.5675
X5.4237Y-4.7977
X5.4767Y-4.7977
X5.5162Y-4.7977
X6.1299Y-3.8287
T4
; plated pad hole
X6.6579Y-3.95
X6.6579Y-4.05
X6.6579Y-4.372
X6.6579Y-4.472
T5
X6.148Y-4.436
X6.1488Y-4.036
X6.1488Y-4.136
X6.1488Y-4.236
X6.1488Y-4.336
X6.248Y-3.986
X6.248Y-4.086
X6.248Y-4.186
X6.248Y-4.286
X6.248Y-4.386
X6.3116Y-4.81
X6.4116Y-4.81
X6.5116Y-4.81
T6
X5.1634Y-4.2717
X5.1634Y-4.4488
X5.4193Y-4.2717
X5.4193Y-4.4488
X5.5965Y-4.2717
X5.5965Y-4.4488
X5.8524Y-4.2717
X5.8524Y-4.4488
T7
X6.378Y-3.9049
X6.378Y-4.5171
T3
; plated pad hole
G00X4.8307Y-3.7096
M15
G01X4.8071Y-3.7096
M16
G05
G00X4.8307Y-3.9911
M15
G01X4.8071Y-3.9911
M16
G05
T0
M30
